<svg width="16" height="16" viewBox="0 0 16 16" fill="none" xmlns="http://www.w3.org/2000/svg">
<g clip-path="url(#clip0_2_147)">
<path d="M10.4123 3.59487C9.50902 1.75051 7.61953 0.531128 5.50011 0.531128C2.46746 0.531128 0.00024082 2.98435 0.00024082 5.99975C0.00024082 6.81923 0.176174 7.60468 0.523416 8.33701L0.00933436 10.9077C-0.0561016 11.235 0.232579 11.5242 0.559884 11.4595L3.16229 10.9449C3.51269 11.1112 3.87518 11.2376 4.24764 11.3247C3.41275 7.37034 6.41006 3.65855 10.4123 3.59487Z" fill="#36A3EB"/>
<path d="M15.4767 12.3369C15.5665 12.1475 15.6446 11.9545 15.7114 11.7584H15.6942C16.8645 8.32355 14.4035 4.71351 10.7704 4.53773C10.7703 4.53755 10.7703 4.53736 10.7702 4.53717C7.64419 4.39311 5.047 6.89605 5.047 9.99967C5.047 13.0125 7.49572 15.4638 10.5076 15.4682C11.3245 15.4671 12.1076 15.2912 12.8378 14.9449C15.6879 15.5084 15.4657 15.4683 15.5311 15.4683C15.8273 15.4683 16.0486 15.1969 15.9908 14.9076L15.4767 12.3369Z" fill="#36A3EB"/>
</g>
<defs>
<clipPath id="clip0_2_147">
<rect width="16" height="16" fill="white"/>
</clipPath>
</defs>
</svg>
