<svg width="246" height="62" viewBox="0 0 246 62" fill="none" xmlns="http://www.w3.org/2000/svg">
<path d="M125.577 22.4567H119.148L117.844 25.7125H113.742L120.619 8.48639H124.233L130.953 25.7125H126.852L125.577 22.4567ZM124.488 19.4101L122.417 13.6252L120.296 19.4101H124.488Z" fill="black"/>
<path d="M147.482 8.48639V25.7125H143.544V11.845H138.92V17.7583C138.92 20.6948 138.556 23.1541 137.205 24.5489C136.479 25.283 135.316 25.918 133.373 25.918C132.838 25.9199 132.306 25.8508 131.789 25.7125V22.1483C132.101 22.2555 132.429 22.3076 132.759 22.3025C133.332 22.3252 133.891 22.1211 134.317 21.7336C135.044 20.9994 135.084 19.4872 135.084 18.118V8.48639H147.482Z" fill="black"/>
<path d="M159.949 11.845H154.325V25.7125H150.388V8.48639H159.949V11.845Z" fill="black"/>
<path d="M176.716 10.6043C177.571 11.4518 178.247 12.4653 178.703 13.5838C179.159 14.7023 179.387 15.9026 179.372 17.1123C179.383 18.3138 179.153 19.5051 178.697 20.6146C178.24 21.7241 177.567 22.729 176.716 23.5689C175.129 25.1179 172.982 26.1016 170.12 26.1016C166.927 26.1016 164.754 24.8095 163.476 23.5689C162.626 22.7391 161.952 21.7434 161.495 20.6423C161.038 19.5412 160.807 18.3577 160.817 17.1637C160.852 14.7305 161.798 12.4011 163.465 10.6447C164.616 9.48114 166.734 8.11201 170.134 8.11201C172.779 8.09733 175.002 8.92688 176.716 10.6043ZM166.371 13.2398C165.869 13.7511 165.477 14.3608 165.218 15.0312C164.959 15.7017 164.838 16.4187 164.863 17.138C164.84 17.8578 164.967 18.5745 165.235 19.2416C165.504 19.9087 165.908 20.5114 166.422 21.0105C166.905 21.4832 167.478 21.8527 168.106 22.0968C168.734 22.3408 169.404 22.4545 170.076 22.431C170.772 22.4565 171.466 22.3395 172.117 22.0872C172.767 21.8349 173.361 21.4524 173.861 20.9628C174.358 20.4599 174.746 19.8585 175.001 19.1964C175.256 18.5342 175.373 17.8259 175.343 17.116C175.36 16.4038 175.238 15.6952 174.984 15.0307C174.729 14.3662 174.348 13.7589 173.861 13.2435C172.84 12.2865 171.494 11.7611 170.101 11.7753C169.415 11.7594 168.732 11.8806 168.092 12.1319C167.452 12.3832 166.867 12.7597 166.371 13.2398Z" fill="black"/>
<path d="M187.803 8.48639C189.285 8.48639 190.92 8.69194 192.275 9.90691C193.728 11.199 193.935 12.9021 193.935 14.0914C193.935 16.2607 193.117 17.472 192.482 18.129C191.127 19.5239 189.339 19.656 188.123 19.656H185.721V25.7125H181.802V8.48639H187.803ZM185.732 16.4149H187.138C187.676 16.4149 188.62 16.3892 189.26 15.7688C189.686 15.3081 189.915 14.6962 189.899 14.0657C189.91 13.7561 189.858 13.4475 189.748 13.1585C189.637 12.8696 189.47 12.6063 189.256 12.3846C188.667 11.8193 187.825 11.7385 187.076 11.7385H185.747L185.732 16.4149Z" fill="black"/>
<path d="M200.045 8.48644V19.7478L207.942 8.28088H211.415V25.7125H207.484V14.4255L199.587 25.9181H196.111V8.48644H200.045Z" fill="black"/>
<path d="M221.106 11.845V25.7125H217.172V11.845H213.492V8.48639H224.855V11.845H221.106Z" fill="black"/>
<path d="M225.49 25.7125L228.226 8.48639H231.495L235.752 18.7897L239.995 8.48639H243.265L246 25.7125H242.051L240.7 15.4348L236.432 25.7125H235.051L230.783 15.4348L229.428 25.7125H225.49Z" fill="black"/>
<path d="M129.896 36.3132V53.5393H125.959V39.6718H119.511V53.5393H115.559V36.3132H129.896Z" fill="black"/>
<path d="M138.694 36.3132C140.176 36.3132 141.811 36.5187 143.166 37.7337C144.619 39.0257 144.826 40.7289 144.826 41.9182C144.826 44.0875 144.009 45.2988 143.373 45.9558C142.018 47.3506 140.231 47.4791 139.014 47.4791H136.613V53.5246H132.686V36.3132H138.694ZM136.624 44.2417H138.037C138.575 44.2417 139.519 44.216 140.158 43.5956C140.585 43.1348 140.814 42.523 140.798 41.8925C140.809 41.5831 140.758 41.2747 140.648 40.9857C140.539 40.6968 140.372 40.4334 140.158 40.2113C139.57 39.6424 138.727 39.5653 137.961 39.5653H136.631L136.624 44.2417Z" fill="black"/>
<path d="M150.929 36.3132V47.5746L158.83 36.1077H162.302V53.5393H158.379V42.2522L150.482 53.7449H147.006V36.3132H150.929Z" fill="black"/>
<path d="M165.412 36.3132H175.946V39.6718H169.346V43.1038H171.544C173.026 43.1038 174.918 43.2873 176.349 44.7078C176.807 45.181 177.166 45.743 177.403 46.36C177.64 46.9769 177.752 47.6361 177.73 48.2977C177.772 49.6647 177.276 50.9929 176.349 51.9903C175.096 53.2566 173.284 53.5393 171.213 53.5393H165.401L165.412 36.3132ZM170.904 50.3348C171.442 50.3348 172.412 50.2834 173.026 49.7953C173.241 49.6072 173.413 49.3729 173.528 49.1094C173.643 48.8459 173.699 48.5598 173.69 48.272C173.701 47.9618 173.637 47.6537 173.503 47.3743C173.37 47.0948 173.171 46.8524 172.924 46.6679C172.31 46.2311 171.315 46.2054 170.904 46.2054H169.346V50.3348H170.904Z" fill="black"/>
<path d="M195.46 38.4311C197.159 40.1515 198.114 42.4828 198.114 44.9134C198.114 47.3439 197.159 49.6752 195.46 51.3956C193.877 52.9446 191.73 53.9247 188.867 53.9247C185.671 53.9247 183.498 52.6363 182.223 51.3956C181.374 50.5658 180.7 49.5701 180.243 48.469C179.786 47.3679 179.555 46.1844 179.564 44.9904C179.59 42.5537 180.531 40.2179 182.198 38.4568C183.346 37.2932 185.467 35.9241 188.867 35.9241C191.526 35.9241 193.749 36.75 195.46 38.4311ZM185.111 41.0629C184.61 41.5752 184.218 42.1855 183.959 42.8565C183.699 43.5275 183.579 44.2449 183.604 44.9647C183.58 45.6845 183.707 46.4012 183.976 47.0683C184.244 47.7355 184.648 48.3381 185.162 48.8372C185.645 49.3102 186.218 49.6797 186.846 49.9238C187.474 50.1679 188.144 50.2815 188.816 50.2577C189.512 50.2833 190.206 50.1664 190.856 49.9141C191.505 49.6618 192.098 49.2793 192.598 48.7895C193.095 48.2867 193.483 47.6852 193.738 47.0231C193.993 46.361 194.11 45.6526 194.08 44.9427C194.113 43.5034 193.58 42.1095 192.598 41.0666C191.576 40.112 190.233 39.587 188.842 39.5983C187.455 39.5675 186.113 40.0943 185.111 41.0629Z" fill="black"/>
<path d="M206.754 36.3132C208.236 36.3132 209.871 36.5187 211.225 37.7337C212.679 39.0257 212.886 40.7289 212.886 41.9182C212.886 44.0875 212.068 45.2988 211.433 45.9558C210.078 47.3506 208.29 47.4791 207.073 47.4791H204.672V53.5246H200.746V36.3132H206.754ZM204.371 44.2417H205.777C206.311 44.2417 207.259 44.216 207.898 43.5956C208.323 43.1342 208.551 42.5225 208.534 41.8925C208.546 41.5834 208.496 41.275 208.386 40.9861C208.277 40.6971 208.111 40.4335 207.898 40.2113C207.31 39.6424 206.467 39.5653 205.697 39.5653H204.371V44.2417Z" fill="black"/>
<path d="M92.6083 39.5323L92.5792 39.0515C92.5356 38.2917 92.4666 37.5318 92.3794 36.7904C91.642 30.5824 89.4574 24.6397 86.0052 19.4507C82.5529 14.2617 77.9315 9.97445 72.5206 6.94115C67.1098 3.90786 61.0639 2.2151 54.8797 2.00197C48.6955 1.78884 42.5495 3.06142 36.9467 5.71514L34.611 6.81631L47.7426 21.7042L48.8615 21.4363C51.48 20.8084 54.1957 20.711 56.8517 21.1495C59.5077 21.5881 62.0514 22.554 64.3359 23.9915C66.6204 25.429 68.6005 27.3096 70.1617 29.5246C71.723 31.7397 72.8345 34.2453 73.432 36.8968C73.5887 37.5751 73.71 38.2612 73.7953 38.9524L73.8643 39.525H63.4752L83.3017 62L103.132 39.525L92.6083 39.5323ZM83.2944 55.3966L73.1814 43.9297H78.2924V41.4777C78.2924 37.8313 77.5026 34.229 75.9785 30.9237C74.4544 27.6184 72.2329 24.6902 69.4699 22.3446C66.707 19.999 63.4694 18.2928 59.9846 17.3458C56.4997 16.3988 52.852 16.2339 49.2974 16.8627L41.8506 8.42036C46.7658 6.63868 52.0153 6.00009 57.2084 6.55213C62.4016 7.10417 67.4047 8.83263 71.8453 11.6088C76.2859 14.3851 80.0496 18.1376 82.8564 22.587C85.6632 27.0364 87.4407 32.0683 88.0567 37.3079C88.2181 38.6919 88.2994 40.0842 88.3001 41.4777V43.9297H93.4111L83.2944 55.3966Z" fill="#36A3EB"/>
<path d="M55.3746 40.204L54.2594 40.472C52.7199 40.8371 51.1439 41.0219 49.5625 41.0226C44.902 41.0409 40.3793 39.4259 36.765 36.4527C32.6394 33.1042 29.9743 28.2572 29.3401 22.9486L29.2711 22.3906H39.6602L23.9167 4.53318L19.9064 0L18.4788 1.44254L0 22.3906H10.5344L10.5635 22.8678C10.6107 23.6313 10.6761 24.3948 10.7632 25.1326C11.0562 27.6558 11.5878 30.1448 12.3507 32.5655C14.853 40.4335 19.7452 47.3047 26.3324 52.2032C32.0017 56.4332 38.6965 59.0372 45.7094 59.7402C52.7223 60.4431 59.7929 59.2189 66.1742 56.1968L68.5099 55.0956L55.3746 40.204ZM49.5625 55.5324C41.0602 55.5408 32.8508 52.3949 26.4921 46.6916C20.1335 40.9883 16.0682 33.1246 15.0678 24.593C14.9077 23.2089 14.8276 21.8166 14.8281 20.4232V17.9859H9.71344L19.8301 6.5153L29.9468 17.9859H24.8358V20.4415C24.8367 27.0679 27.4422 33.4225 32.0791 38.108C36.7161 42.7936 43.0049 45.4263 49.5625 45.4273C50.9894 45.4283 52.4138 45.3055 53.8199 45.0602L61.2702 53.5026C57.5126 54.8558 53.5517 55.5425 49.5625 55.5324Z" fill="#F35F5F"/>
</svg>
