<svg width="11" height="12" viewBox="0 0 11 12" fill="none" xmlns="http://www.w3.org/2000/svg">
<path d="M9.76798 8.21476C9.05498 7.60493 8.33139 7.23554 7.62714 7.84444L7.20662 8.21246C6.89894 8.4796 6.32689 9.72781 4.11511 7.18349C1.9038 4.64239 3.21972 4.24674 3.52786 3.9819L3.95068 3.61343C4.65125 3.00314 4.38686 2.23487 3.88159 1.44403L3.57668 0.965011C3.06911 0.176014 2.51639 -0.342154 1.81399 0.267211L1.43446 0.598839C1.12402 0.824991 0.256259 1.5601 0.045768 2.95662C-0.207559 4.63226 0.591572 6.55109 2.42243 8.65647C4.25099 10.7628 6.04132 11.8207 7.73722 11.8023C9.14664 11.7871 9.99782 11.0308 10.264 10.7559L10.645 10.4238C11.3455 9.81486 10.9103 9.1949 10.1968 8.58369L9.76798 8.21476Z" fill="#36A3EB"/>
</svg>
