<svg width="102" height="62" viewBox="0 0 102 62" fill="none" xmlns="http://www.w3.org/2000/svg">
<path d="M92.6083 39.5323L92.5792 39.0515C92.5356 38.2917 92.4666 37.5318 92.3794 36.7904C91.642 30.5824 89.4574 24.6397 86.0052 19.4507C82.5529 14.2617 77.9315 9.97445 72.5206 6.94115C67.1098 3.90786 61.0639 2.2151 54.8797 2.00197C48.6955 1.78884 42.5495 3.06142 36.9467 5.71514L34.611 6.81631L47.7426 21.7042L48.8615 21.4363C51.48 20.8084 54.1957 20.711 56.8517 21.1495C59.5077 21.5881 62.0514 22.554 64.3359 23.9915C66.6204 25.429 68.6005 27.3096 70.1617 29.5246C71.723 31.7397 72.8345 34.2453 73.432 36.8968C73.5887 37.5751 73.71 38.2612 73.7953 38.9524L73.8643 39.525H63.4752L83.3017 62L103.132 39.525L92.6083 39.5323ZM83.2944 55.3966L73.1814 43.9297H78.2924V41.4777C78.2924 37.8313 77.5026 34.229 75.9785 30.9237C74.4544 27.6184 72.2329 24.6902 69.4699 22.3446C66.707 19.999 63.4694 18.2928 59.9846 17.3458C56.4997 16.3988 52.852 16.2339 49.2974 16.8627L41.8506 8.42036C46.7658 6.63868 52.0153 6.00009 57.2084 6.55213C62.4016 7.10417 67.4047 8.83263 71.8453 11.6088C76.2859 14.3851 80.0496 18.1376 82.8564 22.587C85.6632 27.0364 87.4407 32.0683 88.0567 37.3079C88.2181 38.6919 88.2994 40.0842 88.3001 41.4777V43.9297H93.4111L83.2944 55.3966Z" fill="#36A3EB"/>
<path d="M55.3746 40.204L54.2594 40.472C52.7199 40.8371 51.1439 41.0219 49.5625 41.0226C44.902 41.0409 40.3793 39.4259 36.765 36.4527C32.6394 33.1042 29.9743 28.2572 29.3401 22.9486L29.2711 22.3906H39.6602L23.9167 4.53318L19.9064 0L18.4788 1.44254L0 22.3906H10.5344L10.5635 22.8678C10.6107 23.6313 10.6761 24.3948 10.7632 25.1326C11.0562 27.6558 11.5878 30.1448 12.3507 32.5655C14.853 40.4335 19.7452 47.3047 26.3324 52.2032C32.0017 56.4332 38.6965 59.0372 45.7094 59.7402C52.7223 60.4431 59.7929 59.2189 66.1742 56.1968L68.5099 55.0956L55.3746 40.204ZM49.5625 55.5324C41.0602 55.5408 32.8508 52.3949 26.4921 46.6916C20.1335 40.9883 16.0682 33.1246 15.0678 24.593C14.9077 23.2089 14.8276 21.8166 14.8281 20.4232V17.9859H9.71344L19.8301 6.5153L29.9468 17.9859H24.8358V20.4415C24.8367 27.0679 27.4422 33.4225 32.0791 38.108C36.7161 42.7936 43.0049 45.4263 49.5625 45.4273C50.9894 45.4283 52.4138 45.3055 53.8199 45.0602L61.2702 53.5026C57.5126 54.8558 53.5517 55.5425 49.5625 55.5324Z" fill="#F35F5F"/>
</svg>
